<?xml version="1.0" encoding="iso-8859-1"?>
<!-- Generator: Adobe Illustrator 22.1.0, SVG Export Plug-In . SVG Version: 6.00 Build 0)  -->
<svg version="1.1" id="Layer_1" xmlns="http://www.w3.org/2000/svg" xmlns:xlink="http://www.w3.org/1999/xlink" x="0px" y="0px"
	 width="1000px" height="1000px" viewBox="0 0 1000 1000" enable-background="new 0 0 1000 1000" xml:space="preserve">
<path fill="#CC0505" d="M806.666,175.176c-68.555-34.823-152.914-31.194-217.816,10.274
	c-59.952,38.305-99.157,99.428-120.363,166.565c-72.558-102.043-222.96-148.997-318.956-49.446
	c-43.071,44.666-65.089,110.858-44.173,171.344c25.141,72.705,93.467,119.452,149.937,166.02
	c82.9,68.363,165.8,136.727,248.7,205.09c8.776,7.237,21.335,4.881,25.015-6.683c63.28-198.844,329.885-245.816,370.101-459.606
	C914.643,296.162,882.579,213.737,806.666,175.176z M854.364,422.65c-36.449,84.33-113.424,140.06-182.726,195.217
	c-66.385,52.836-131.339,111.47-163.803,191.451c-71.776-59.19-143.553-118.381-215.329-177.571
	c-59.654-49.194-152.089-105.555-164.215-189.722c-10.892-75.599,51.373-149.218,123.085-162.693
	c80.77-15.177,160.565,35.44,201.474,103.406c1.642,2.728,3.732,4.524,6.001,5.672c-3.232,14.988-5.727,30.104-7.308,45.209
	c-2.027,19.361,27.921,19.217,29.933,0c8.601-82.141,44.891-166.673,113.072-215.61c59.664-42.823,141.45-49.122,205.621-12.044
	C877.814,250.827,887.905,345.05,854.364,422.65z"/>
</svg>
