<?xml version="1.0" encoding="iso-8859-1"?>
<!-- Generator: Adobe Illustrator 22.1.0, SVG Export Plug-In . SVG Version: 6.00 Build 0)  -->
<svg version="1.1" id="Layer_1" xmlns="http://www.w3.org/2000/svg" xmlns:xlink="http://www.w3.org/1999/xlink" x="0px" y="0px"
	 width="1000px" height="1000px" viewBox="0 0 1000 1000" enable-background="new 0 0 1000 1000" xml:space="preserve">
<path fill="#CC0505" d="M976.325,369.281c-20.252-50.815-70.381-76.386-123.057-63.666c-56.78,13.711-91.559,62.381-113.166,114.014
	c-20.239-21.747-42.247-43.64-66.847-60.282c2.968-26.162,1.695-52.508-5.7-78.255c-38.78-135.032-221.706-152.114-305.972-52.656
	c-28.257,33.352-45.06,74.462-51.085,117.314c-97.781-74.191-245.902-36.312-287.923,84.421
	C1.687,490.19,10.773,558.034,49.235,608.644c39.897,52.498,102.532,81.499,164.272,98.391
	c93.59,25.606,193.307,24.366,282.128,67.305c6.012,2.907,13.484-0.531,13.512-7.846c0.252-65.274,28.066-122.196,60.336-176.783
	c56.718,41.288,131.553,65.38,192.74,82.083c0.566,0.154,1.103,0.222,1.635,0.275c1.99,5.523,9.261,9.208,14.773,3.853
	C859.539,597.336,1033.053,511.62,976.325,369.281z M491.668,752.726c-77.563-33.709-161.85-38.352-243.826-56.045
	c-73.827-15.934-154.854-46.917-195.648-115.685c-39.828-67.138-25.655-160.671,31.088-213.695
	c61.788-57.738,162.728-54.542,225.103-0.099c-1.61,28.617,1.421,57.564,9.082,85.117c3.126,11.241,20.459,6.465,17.318-4.832
	c-36.493-131.245,51.494-291.523,200.813-262.378c70.42,13.745,119.391,70.491,120.869,143.647
	c0.136,6.738-0.151,13.395-0.619,20.015c-23.301-12.567-48.857-19.863-77.294-17.868c-61.524,4.318-98.763,56.517-94.466,116.828
	c3.99,56,31.893,98.311,71.058,130.879C523.317,632.621,495.477,689.293,491.668,752.726z M564.244,563.376
	c-24.974-21.865-44.716-48.638-55.469-81.975c-19.19-59.494,3.624-129.213,73.556-132.474c26.388-1.23,49.951,6.499,71.356,19.08
	c-9.978,64.695-45.588,123.828-79.274,178.685C571.012,552.229,567.622,557.794,564.244,563.376z M779.58,650.546
	c-1.316,0.393-2.615,1.12-3.813,2.358c-1.39,1.437-2.78,2.874-4.171,4.311c-1.035-1.325-2.543-2.383-4.6-2.945
	c-60.748-16.583-134.109-38.46-188.591-79.443c12.228-20.154,24.78-40.061,36.472-60.029c23.781-40.614,46.128-87.565,55.386-135.83
	c24.713,18.098,46.491,41.774,66.512,63.684c4.951,5.418,12.77,2.022,15.009-4.01c19.231-51.809,52.524-104.775,110.153-116.445
	c61.169-12.387,105.637,38.192,106.296,97.175C969.449,528.136,852.533,586.808,779.58,650.546z"/>
</svg>
