<?xml version="1.0" encoding="iso-8859-1"?>
<!-- Generator: Adobe Illustrator 22.1.0, SVG Export Plug-In . SVG Version: 6.00 Build 0)  -->
<svg version="1.1" id="Layer_1" xmlns="http://www.w3.org/2000/svg" xmlns:xlink="http://www.w3.org/1999/xlink" x="0px" y="0px"
	 width="1000px" height="1000px" viewBox="0 0 1000 1000" enable-background="new 0 0 1000 1000" xml:space="preserve">
<path fill="#CC0505" d="M913.119,250.732c4.091-5.927,3.41-15.419-4.62-18.718c-0.398-0.183-0.801-0.352-1.23-0.479
	c-0.098-0.03-0.173-0.079-0.273-0.106c-17.535-4.887-35.07-9.774-52.604-14.662c-15.126-4.216-21.58,19.543-6.472,23.754
	c5.268,1.468,10.536,2.937,15.804,4.405c-27.76,9.901-55.52,19.803-83.28,29.704c-1.558,0.556-2.83,1.355-3.93,2.272
	c-11.142-27.576-34.093-51.023-60.523-65.557c-50.498-27.768-114.383-29.264-166.96-6.672
	c-44.373,19.067-79.435,54.668-99.859,98.007c-24.695-33.297-57.668-60.094-97.482-72.763
	c-49.694-15.814-107.83-7.404-147.282,28.309c-37.169,33.647-54.013,89.436-36.053,137.305
	c15.15,40.381,47.826,67.398,83.435,89.005c-12.573,4.748-25.145,9.495-37.718,14.243c-25.877-11.059-52.731-16.558-80.921-15.478
	c-15.616,0.598-15.693,25.236,0,24.634c15.363-0.589,30.472,0.788,45.166,4.345c-14.459,5.46-28.919,10.92-43.378,16.38
	c-0.982-0.555-2.056-1.037-3.338-1.337c-20.737-4.843-41.475-9.685-62.212-14.528c-15.247-3.56-21.755,20.185-6.472,23.754
	c10.53,2.459,21.061,4.918,31.591,7.377c-21.433,8.094-42.866,16.187-64.299,24.28c-14.547,5.493-8.25,29.313,6.472,23.754
	c21.951-8.289,43.901-16.578,65.852-24.867c-2.868,6.386-5.737,12.771-8.605,19.157c-6.434,14.324,14.54,26.861,21.021,12.433
	c6.541-14.563,13.083-29.126,19.625-43.689c17.128-6.468,34.256-12.935,51.384-19.403c-5.153,10.43-10.307,20.859-15.46,31.289
	c-6.987,14.14,14.006,26.63,21.02,12.433c9.278-18.778,18.556-37.555,27.835-56.333c20.066-7.577,40.132-15.154,60.198-22.732
	c3.395,1.816,6.784,3.61,10.152,5.372c66.552,34.825,125.092,77.453,174.151,135.221c0.705,0.831,1.448,1.492,2.208,2.053
	c1.788,8.296,12.65,14.664,20.6,6.891c55.344-54.119,110.688-108.237,166.032-162.356c26.348-25.765,53.175-51.119,79.017-77.403
	c19.387-19.719,38.055-41.453,47.112-68.171c4.939-14.571,5.908-28.991,3.822-42.777c1.333,0.02,2.745-0.15,4.272-0.695
	c28.971-10.334,57.941-20.667,86.912-31c-5.028,9.276-10.057,18.552-15.085,27.828c-7.539,13.907,13.475,26.352,21.02,12.433
	c9.533-17.586,19.066-35.172,28.599-52.757C910.434,253.848,912.024,252.423,913.119,250.732z M719.257,387.725
	c-26.077,27.236-53.812,52.984-80.759,79.335c-52.86,51.69-105.719,103.379-158.579,155.069
	c-41.171-48.181-90.108-89.167-145.114-120.254c-7.808-4.413-16.114-8.764-24.646-13.183
	c39.332-14.853,78.665-29.705,117.997-44.557c14.547-5.493,8.25-29.313-6.472-23.754c-46.856,17.693-93.711,35.387-140.567,53.08
	c-42.407-23.026-83.544-51.211-93.911-99.866c-14.449-67.813,45.512-124.116,108.92-126.591
	c60.368-2.356,110.682,34.137,142.351,83.218c-1.284,4.185-2.471,8.407-3.491,12.684c-3.565,14.949,18.379,21.518,23.044,7.796
	c7.769-0.849,15.092-9.268,10.119-18.379c-0.927-1.698-1.914-3.364-2.879-5.043c20.009-53.325,63.739-95.164,119.787-108.817
	c60.615-14.766,154.36,5.8,172.333,76.481C766.67,331.437,742.901,363.03,719.257,387.725z"/>
</svg>
